<?xml version="1.0" encoding="UTF-8" standalone="no"?>
<!DOCTYPE svg PUBLIC "-//W3C//DTD SVG 1.1//EN" "http://www.w3.org/Graphics/SVG/1.1/DTD/svg11.dtd">
<svg width="100%" height="100%" viewBox="0 0 2102 340" version="1.1" xmlns="http://www.w3.org/2000/svg" xmlns:xlink="http://www.w3.org/1999/xlink" xml:space="preserve" xmlns:serif="http://www.serif.com/" style="fill-rule:evenodd;clip-rule:evenodd;stroke-linejoin:round;stroke-miterlimit:2;">
    <g transform="matrix(4.16667,0,0,4.16667,-875.209,-2882.7)">
        <g transform="matrix(1.13216,0,0,1.13216,51.044,-99.6933)">
            <path d="M140.445,728.643C140.445,725.605 142.908,723.142 145.945,723.142C158.55,723.142 188.445,723.142 188.445,723.142L188.445,735.142L153.885,735.142L153.885,741.142L188.445,741.142L188.445,765.642C188.445,768.68 185.982,771.142 182.945,771.142C170.34,771.142 140.445,771.142 140.445,771.142L140.445,759.142L175.005,759.142L175.005,753.142L140.445,753.142L140.445,728.643Z" style="fill-rule:nonzero;"/>
            <path d="M200.445,723.142L248.445,723.142L248.445,735.142L213.885,735.142L213.885,759.142L248.445,759.142L248.445,771.142L200.445,771.142L200.445,723.142Z" style="fill-rule:nonzero;"/>
            <path d="M260.445,723.142L296.445,723.142L296.445,735.142L273.885,735.142L273.885,771.142L260.445,771.142L260.445,723.142Z" style="fill-rule:nonzero;"/>
            <path d="M308.445,723.142L321.885,723.142L321.885,771.142L308.445,771.142L308.445,723.142ZM308.445,699.142L321.885,699.142L321.885,711.142L308.445,711.142L308.445,699.142Z" style="fill-rule:nonzero;"/>
            <path d="M333.885,699.142L347.325,699.142L347.325,723.142L376.385,723.142C377.843,723.142 379.242,723.722 380.274,724.753C381.305,725.785 381.885,727.184 381.885,728.643C381.885,741.247 381.885,771.142 381.885,771.142L354.885,771.142L347.325,763.582L347.325,771.142L333.885,771.142L333.885,699.142ZM347.325,735.142L347.325,759.142L368.445,759.142L368.445,735.142L347.325,735.142Z" style="fill-rule:nonzero;"/>
            <path d="M393.885,723.142L441.885,723.142L441.885,753.142L407.325,753.142L407.325,759.142L441.885,759.142L441.885,771.142L393.885,771.142L393.885,723.142ZM407.325,735.142L407.325,741.142L428.445,741.142L428.445,735.142L407.325,735.142Z" style="fill-rule:nonzero;"/>
            <path d="M477.885,704.643C477.885,701.605 480.348,699.142 483.385,699.142C495.99,699.142 525.885,699.142 525.885,699.142L525.885,729.142L519.885,735.142L525.885,741.142L525.885,765.642C525.885,768.68 523.422,771.142 520.385,771.142C507.78,771.142 477.885,771.142 477.885,771.142L477.885,741.142L483.885,735.142L477.885,729.142L477.885,704.643ZM491.325,711.142L491.325,729.142L512.445,729.142L512.445,711.142L491.325,711.142ZM491.325,741.142L491.325,759.142L512.445,759.142L512.445,741.142L491.325,741.142Z" style="fill-rule:nonzero;"/>
            <path d="M537.885,699.142L585.885,699.142L585.885,705.642C585.885,707.101 585.305,708.5 584.274,709.531C583.242,710.563 581.843,711.142 580.385,711.142C570.632,711.142 551.325,711.142 551.325,711.142L551.325,729.142L576.885,729.142L585.885,738.142L585.885,762.142L576.885,771.142L537.885,771.142L537.885,764.643C537.885,763.184 538.464,761.785 539.496,760.753C540.528,759.722 541.927,759.142 543.385,759.142C553.138,759.142 572.445,759.142 572.445,759.142L572.445,741.142L537.885,741.142L537.885,699.142Z" style="fill-rule:nonzero;"/>
        </g>
    </g>
</svg>
